<svg xmlns="http://www.w3.org/2000/svg" width="24" height="24" viewBox="0 0 24 24">
  <g id="Group_8903" data-name="Group 8903" transform="translate(-48 -475)">
    <g id="outline-call-24px" transform="translate(48 475)">
      <g id="Bounding_Boxes">
        <path id="Path_2704" data-name="Path 2704" d="M0,0H24V24H0Z" fill="none"/>
      </g>
      <g id="Outline" transform="translate(5 5)">
        <path id="Path_2705" data-name="Path 2705" d="M5.753,4.556A9.576,9.576,0,0,0,6.1,6.57L5.17,7.5a11.531,11.531,0,0,1-.591-2.948H5.753M13.422,13.9a9.919,9.919,0,0,0,2.022.35v1.159a12,12,0,0,1-2.956-.583l.933-.926M6.5,3H3.778A.78.78,0,0,0,3,3.778,13.221,13.221,0,0,0,16.222,17,.78.78,0,0,0,17,16.222V13.508a.78.78,0,0,0-.778-.778,8.872,8.872,0,0,1-2.777-.443.653.653,0,0,0-.241-.039.8.8,0,0,0-.552.226l-1.711,1.711A11.782,11.782,0,0,1,5.816,9.059L7.527,7.348a.781.781,0,0,0,.194-.793,8.836,8.836,0,0,1-.443-2.777A.78.78,0,0,0,6.5,3Z" transform="translate(-3 -3)" fill="#330507"/>
      </g>
    </g>
  </g>
</svg>
